<svg width="1269" height="970" viewBox="0 0 1269 970" fill="none" xmlns="http://www.w3.org/2000/svg">
<path d="M550.57 -2.41163e-05L4.10629e-06 94.1366L77.8549 891.91L643.404 970L1265.35 803.643L1268.36 43.2072L1057.7 47.6263L1097.74 331.576L655.334 376.837L639.554 130.158L560.542 132.412L550.57 -2.41163e-05Z" fill="black"/>
<path d="M720.936 123L621.899 188.887L726.677 203.711L626.954 260.33L733.379 296.771L632.008 331.233L738.822 373.41L637.818 413.316L744.449 452.794L643.284 490L617.713 130.108L720.936 123Z" fill="black"/>
<path d="M975.662 429L1111.31 358.467L969.645 346.593L1106 285.542L962.613 251.573L1100.73 213.131L956.926 173.303L1094.63 129.315L951.019 92.2372L1088.94 51L1115.68 418.512L975.662 429Z" fill="black"/>
<path d="M252.975 337.334C307.233 334.17 349.003 293.928 346.248 247.471C343.512 200.988 297.288 165.889 243.03 169.053C188.772 172.217 147.023 212.455 149.76 258.938C152.489 305.377 198.717 340.499 252.975 337.334Z" fill="white"/>
</svg>
