<svg width="1920" height="1070" viewBox="0 0 1920 1070" fill="none" xmlns="http://www.w3.org/2000/svg">
<path d="M801.042 196.971L651.626 295.104L809.703 317.184L659.252 401.514L819.813 455.79L666.878 507.119L828.026 569.939L675.643 629.375L836.515 688.175L683.89 743.591L645.312 207.558L801.042 196.971Z" fill="black"/>
<path d="M1475.57 586.009L1682.31 481.256L1466.4 463.62L1674.21 372.95L1455.68 322.5L1666.18 265.407L1447.01 206.255L1656.88 140.926L1438.01 85.8594L1648.21 24.6152L1688.96 570.432L1475.57 586.009Z" fill="black"/>
<path d="M528.886 0.000306714L0.000172316 75.7714L6.01466e-05 1378.86L973.966 1378.86L1920 1345.77L1920 -8.41007e-05L1601.11 6.57447L1661.72 429.029L687.474 560.649L663.587 193.646L543.98 197L528.886 0.000306714Z" fill="black"/>
<path d="M274.278 416.842C346.432 412.634 401.979 359.12 398.316 297.341C394.676 235.526 333.207 188.851 261.054 193.058C188.901 197.266 133.382 250.775 137.022 312.59C140.651 374.345 202.125 421.05 274.278 416.842Z" fill="white"/>
</svg>
