<svg width="349" height="508" viewBox="0 0 349 508" fill="none" xmlns="http://www.w3.org/2000/svg">
<path d="M225.198 469.611C293.163 448.7 325.836 358.561 298.174 268.28C270.513 177.998 192.992 121.763 125.027 142.674C57.0616 163.584 24.3889 253.724 52.0504 344.005C79.7118 434.286 157.233 490.522 225.198 469.611Z" fill="#E7CE1E"/>
<path d="M200.006 148.895L60.3431 340.407" stroke="#EB8509" stroke-width="6" stroke-miterlimit="10"/>
<path d="M256.324 196.424L93.6075 414.905" stroke="#EB8509" stroke-width="6" stroke-miterlimit="10"/>
<path d="M292.158 269.085L152.788 461.553" stroke="#EB8509" stroke-width="6" stroke-miterlimit="10"/>
<path d="M66.4501 189.986L292.158 269.085" stroke="#EB8509" stroke-width="6" stroke-miterlimit="10"/>
<path d="M46.4509 260.996L305.389 349.746" stroke="#EB8509" stroke-width="6" stroke-miterlimit="10"/>
<path d="M58.4351 340.994L283.482 421.342" stroke="#EB8509" stroke-width="6" stroke-miterlimit="10"/>
<path d="M102.031 171.716L14.099 97.4853L98.8763 122.044L86.8963 27.8301L134.165 111.187L190.583 43.1863L157.177 154.749L102.031 171.716Z" fill="#19431F"/>
</svg>
