<svg width="1316" height="141" viewBox="0 0 1316 141" fill="none" xmlns="http://www.w3.org/2000/svg">
<path d="M60.6742 71.2516L54.448 140.06H93.5035L80.0605 18.7996L33.2223 86.1976L34.6373 16.8256L15.6756 12.8776L1.94958 140.06H30.8167L60.6742 71.2516ZM278.772 140.06V114.68L236.886 123.14L220.472 27.1186L255.706 48.4096L250.895 67.8676L274.81 67.7266L266.602 28.9516L240.141 10.9036L205.33 23.0296L189.057 119.192L212.264 140.06H278.772ZM374.993 140.06L385.747 125.396L382.776 18.6586L362.257 5.4046L308.061 24.7216L289.382 120.179L314.287 140.06H374.993ZM334.947 128.921L327.023 28.3876L370.889 42.7696L359.144 100.721L334.947 128.921ZM470.055 72.5206L430.999 53.4856L425.481 24.2986L470.055 38.6806L467.649 12.7366L404.821 10.9036L396.755 140.06H472.741L487.316 118.769L470.055 72.5206ZM443.452 120.602L431.99 66.4576L468.357 112.142L443.452 120.602ZM583.799 111.437L536.536 128.78L528.895 68.2906L552.81 72.9436L546.159 50.6656L527.905 60.3946L523.235 25.1446L569.507 41.2186L565.97 14.5696L500.877 10.9036L498.047 140.06H582.101L583.799 111.437ZM630.595 100.157L665.547 66.5986L675.877 30.9256L650.83 10.7626L599.747 12.5956L594.228 140.06H637.387L630.595 100.157ZM621.68 25.1446L650.83 34.5916L627.765 85.6336L621.68 25.1446ZM744.847 71.2516L738.62 140.06H777.676L764.233 18.7996L717.394 86.1976L718.81 16.8256L699.848 12.8776L686.122 140.06H714.989L744.847 71.2516ZM962.944 140.06V114.68L921.058 123.14L904.644 27.1186L939.879 48.4096L935.068 67.8676L958.982 67.7266L950.775 28.9516L924.313 10.9036L889.503 23.0296L873.23 119.192L896.437 140.06H962.944ZM1065.96 118.91L1045.16 73.0846L1027.47 63.2146L1038.37 47.7046L1038.79 23.3116L1023.93 13.0186L975.963 11.0446L973.557 140.06H1047.14L1065.96 118.91ZM1007.66 70.6876L1043.18 112.001L1018.56 126.806L1007.66 70.6876ZM999.452 30.0796L1022.23 23.1706L1003.84 56.1646L999.452 30.0796ZM1162.25 140.06L1173.01 125.396L1170.04 18.6586L1149.52 5.4046L1095.32 24.7216L1076.64 120.179L1101.55 140.06H1162.25ZM1122.21 128.921L1114.28 28.3876L1158.15 42.7696L1146.41 100.721L1122.21 128.921ZM1229.16 85.2106H1217.7L1214.3 34.8736L1192.65 24.4396L1184.02 139.778H1221.23L1218.97 105.515L1228.73 101.99L1228.03 127.511L1240.2 139.778H1293.54L1313.35 120.461L1305.15 29.2336L1251.66 4.55859L1231.14 17.9536L1229.16 85.2106ZM1243.03 42.2056L1285.05 28.9516L1274.86 128.498L1252.51 101.003L1243.03 42.2056Z" fill="white"/>
</svg>
