<svg width="1762" height="159" viewBox="0 0 1762 159" fill="none" xmlns="http://www.w3.org/2000/svg">
<path d="M55.1323 139.359L110.945 17.5835L66.8009 10.9897L54.9918 79.5935L41.9172 16.3208L2.41284 22.3535L47.8219 102.742L15.2061 139.359H55.1323ZM162.893 96.4288L187.777 91.7991L189.183 139.359H208.162L222.923 23.8967L186.652 16.3208L187.496 76.0861L161.487 70.4744L159.941 14.7776L144.617 12.6732L122.405 139.359H163.877L162.893 96.4288ZM292.364 70.8953L286.178 139.359H324.98L311.624 18.7058L265.091 85.7664L266.496 16.7417L247.658 12.8135L234.021 139.359H262.701L292.364 70.8953ZM372.449 81.5576L396.068 138.938L443.023 127.293L384.821 56.445L427.559 11.13L390.585 14.7776L370.481 58.9703L366.967 10.8494H346.582L335.616 139.359H376.808L372.449 81.5576ZM556.853 139.359L515.802 4.95702L454.509 139.359H485.295L487.123 129.538L514.677 126.592L516.365 139.359H556.853ZM511.725 103.584L490.216 114.667L504.555 48.3079L511.725 103.584ZM597.431 139.359L610.646 61.6358L623.861 139.359H665.755L626.813 4.95702L568.048 139.359H597.431ZM749.464 82.9605L713.896 49.9914L720.222 10.2882L676.782 13.0941L685.357 139.359H735.687L760.289 118.455L749.464 82.9605ZM706.304 125.189L711.225 64.582L735.265 115.228L706.304 125.189ZM811.04 96.4288L835.924 91.7991L837.33 139.359H856.309L871.07 23.8967L834.799 16.3208L835.643 76.0861L809.634 70.4744L808.088 14.7776L792.764 12.6732L770.552 139.359H812.024L811.04 96.4288ZM934.886 139.359L990.699 17.5835L946.555 10.9897L934.746 79.5935L921.671 16.3208L882.167 22.3535L927.576 102.742L894.96 139.359H934.886ZM1047.01 84.7844H1035.62L1032.25 34.6994L1010.74 24.3176L1002.16 139.078H1039.14L1036.89 104.987L1046.59 101.479L1045.88 126.873L1057.97 139.078H1110.97L1130.66 119.858L1122.5 29.0876L1069.36 4.53613L1048.98 17.8641L1047.01 84.7844ZM1060.79 41.9947L1102.54 28.807L1092.42 127.855L1070.2 100.497L1060.79 41.9947ZM1260.35 32.0338L1294.37 48.0273L1288.75 139.359H1322.07L1307.87 21.3714L1240.11 11.8314L1227.45 139.359H1265.27L1260.35 32.0338ZM1391.24 70.8953L1385.05 139.359H1423.85L1410.5 18.7058L1363.96 85.7664L1365.37 16.7417L1346.53 12.8135L1332.89 139.359H1361.57L1391.24 70.8953ZM1515.18 139.078L1514.9 156.194L1531.91 134.448L1515.18 127.714L1522.07 16.882L1475.96 10.2882L1490.16 111.861L1454.45 118.736L1465.42 37.5053L1433.08 25.7206L1433.79 122.523L1445.74 139.078H1515.18ZM1623.64 139.078L1623.36 156.194L1640.37 134.448L1623.64 127.714L1630.53 16.882L1584.42 10.2882L1598.62 111.861L1562.91 118.736L1573.87 37.5053L1541.54 25.7206L1542.24 122.523L1554.19 139.078H1623.64ZM1704.13 139.359L1759.94 17.5835L1715.79 10.9897L1703.99 79.5935L1690.91 16.3208L1651.41 22.3535L1696.82 102.742L1664.2 139.359H1704.13Z" fill="white"/>
</svg>
