<svg width="724" height="138" viewBox="0 0 724 138" fill="none" xmlns="http://www.w3.org/2000/svg">
<path d="M34.6657 31.5102L68.1449 47.2422L62.6112 137.08H95.3987L81.4259 21.0222L14.7441 11.6382L2.29321 137.08H39.5078L34.6657 31.5102ZM141.606 98.0262L175.776 65.1822L185.876 30.2682L161.389 10.5342L111.447 12.3282L106.051 137.08H148.246L141.606 98.0262ZM132.89 24.6102L161.389 33.8562L138.839 83.8122L132.89 24.6102ZM253.306 69.7362L247.219 137.08H285.402L272.259 18.4002L226.468 84.3642L227.851 16.4682L209.313 12.6042L195.894 137.08H224.116L253.306 69.7362ZM340.415 16.8822L295.869 10.1202L334.19 56.9022L297.529 136.942H334.743L346.641 80.2242L356.74 137.08H400.733L361.72 82.2942L394.508 11.5002L358.262 20.3322L351.345 62.2842L340.415 16.8822ZM495.755 137.08L506.27 122.728L503.364 18.2622L483.304 5.29023L430.317 24.1962L412.056 117.622L436.404 137.08H495.755ZM456.603 126.178L448.855 27.7842L491.743 41.8602L480.261 98.5782L456.603 126.178ZM604.877 106.444L577.899 4.32422L525.744 128.11L517.997 130.042L517.028 137.08H618.158L622.031 101.2L604.877 106.444ZM570.844 115.552L547.879 122.59L564.618 50.9682L570.844 115.552ZM690.765 69.7362L684.678 137.08H722.861L709.718 18.4002L663.926 84.3642L665.31 16.4682L646.772 12.6042L633.352 137.08H661.575L690.765 69.7362Z" fill="white"/>
</svg>
